<mxfile host="app.diagrams.net" modified="2022-06-30T22:28:41.680Z" agent="5.0 (Windows NT 10.0; WOW64) AppleWebKit/537.36 (KHTML, like Gecko) Chrome/103.0.0.0 Safari/537.36" etag="hMikT9cboYJJ70zVnVA5" version="20.0.4" type="github">
  <diagram id="5ESHjCKfYralFYyC-qg9" name="Page-1">
    <mxGraphModel dx="1102" dy="582" grid="1" gridSize="10" guides="1" tooltips="1" connect="1" arrows="1" fold="1" page="1" pageScale="1" pageWidth="827" pageHeight="1169" math="0" shadow="0">
      <root>
        <mxCell id="0" />
        <mxCell id="1" parent="0" />
        <mxCell id="kAd0blMhwZ4-BtbcnQFY-9" style="edgeStyle=orthogonalEdgeStyle;rounded=0;orthogonalLoop=1;jettySize=auto;html=1;exitX=0.5;exitY=1;exitDx=0;exitDy=0;fontSize=20;" edge="1" parent="1" source="kAd0blMhwZ4-BtbcnQFY-2">
          <mxGeometry relative="1" as="geometry">
            <mxPoint x="120" y="180" as="targetPoint" />
          </mxGeometry>
        </mxCell>
        <mxCell id="kAd0blMhwZ4-BtbcnQFY-2" value="" style="ellipse;whiteSpace=wrap;html=1;" vertex="1" parent="1">
          <mxGeometry x="50" y="70" width="140" height="80" as="geometry" />
        </mxCell>
        <mxCell id="kAd0blMhwZ4-BtbcnQFY-3" value="" style="ellipse;whiteSpace=wrap;html=1;" vertex="1" parent="1">
          <mxGeometry x="520" y="70" width="140" height="80" as="geometry" />
        </mxCell>
        <mxCell id="kAd0blMhwZ4-BtbcnQFY-4" value="&lt;font style=&quot;font-size: 20px;&quot;&gt;FIM&lt;/font&gt;" style="text;html=1;strokeColor=none;fillColor=none;align=center;verticalAlign=middle;whiteSpace=wrap;rounded=0;" vertex="1" parent="1">
          <mxGeometry x="560" y="95" width="60" height="30" as="geometry" />
        </mxCell>
        <mxCell id="kAd0blMhwZ4-BtbcnQFY-5" value="&lt;span style=&quot;font-size: 20px;&quot;&gt;INICIO&lt;/span&gt;" style="text;html=1;strokeColor=none;fillColor=none;align=center;verticalAlign=middle;whiteSpace=wrap;rounded=0;" vertex="1" parent="1">
          <mxGeometry x="90" y="95" width="60" height="30" as="geometry" />
        </mxCell>
        <mxCell id="kAd0blMhwZ4-BtbcnQFY-13" style="edgeStyle=orthogonalEdgeStyle;rounded=0;orthogonalLoop=1;jettySize=auto;html=1;exitX=1;exitY=0.5;exitDx=0;exitDy=0;exitPerimeter=0;fontSize=13;" edge="1" parent="1" source="kAd0blMhwZ4-BtbcnQFY-10">
          <mxGeometry relative="1" as="geometry">
            <mxPoint x="230" y="240" as="targetPoint" />
          </mxGeometry>
        </mxCell>
        <mxCell id="kAd0blMhwZ4-BtbcnQFY-19" style="edgeStyle=orthogonalEdgeStyle;rounded=0;orthogonalLoop=1;jettySize=auto;html=1;exitX=0.5;exitY=1;exitDx=0;exitDy=0;exitPerimeter=0;fontSize=13;" edge="1" parent="1" source="kAd0blMhwZ4-BtbcnQFY-10">
          <mxGeometry relative="1" as="geometry">
            <mxPoint x="120" y="320" as="targetPoint" />
          </mxGeometry>
        </mxCell>
        <mxCell id="kAd0blMhwZ4-BtbcnQFY-10" value="" style="strokeWidth=2;html=1;shape=mxgraph.flowchart.decision;whiteSpace=wrap;fontSize=20;" vertex="1" parent="1">
          <mxGeometry x="50" y="190" width="140" height="100" as="geometry" />
        </mxCell>
        <mxCell id="kAd0blMhwZ4-BtbcnQFY-14" value="" style="strokeWidth=2;html=1;shape=mxgraph.flowchart.display;whiteSpace=wrap;fontSize=13;" vertex="1" parent="1">
          <mxGeometry x="250" y="205" width="150" height="70" as="geometry" />
        </mxCell>
        <mxCell id="kAd0blMhwZ4-BtbcnQFY-15" value="&lt;font style=&quot;font-size: 13px;&quot;&gt;NÃO&lt;/font&gt;" style="text;html=1;strokeColor=none;fillColor=none;align=center;verticalAlign=middle;whiteSpace=wrap;rounded=0;fontSize=13;" vertex="1" parent="1">
          <mxGeometry x="190" y="205" width="60" height="30" as="geometry" />
        </mxCell>
        <mxCell id="kAd0blMhwZ4-BtbcnQFY-17" style="edgeStyle=orthogonalEdgeStyle;rounded=0;orthogonalLoop=1;jettySize=auto;html=1;exitX=1.075;exitY=0.667;exitDx=0;exitDy=0;fontSize=13;exitPerimeter=0;" edge="1" parent="1" source="kAd0blMhwZ4-BtbcnQFY-16">
          <mxGeometry relative="1" as="geometry">
            <mxPoint x="570" y="160" as="targetPoint" />
            <Array as="points">
              <mxPoint x="400" y="240" />
              <mxPoint x="570" y="240" />
            </Array>
          </mxGeometry>
        </mxCell>
        <mxCell id="kAd0blMhwZ4-BtbcnQFY-16" value="&lt;span style=&quot;color: rgb(10, 48, 105); font-family: ui-monospace, SFMono-Regular, &amp;quot;SF Mono&amp;quot;, Menlo, Consolas, &amp;quot;Liberation Mono&amp;quot;, monospace; font-size: 12px; text-align: start; background-color: rgb(255, 255, 255);&quot;&gt;Idade menor do que permitido, cadastro inválido&lt;/span&gt;" style="text;html=1;strokeColor=none;fillColor=none;align=center;verticalAlign=middle;whiteSpace=wrap;rounded=0;fontSize=13;" vertex="1" parent="1">
          <mxGeometry x="271" y="223" width="120" height="30" as="geometry" />
        </mxCell>
        <mxCell id="kAd0blMhwZ4-BtbcnQFY-22" style="edgeStyle=orthogonalEdgeStyle;rounded=0;orthogonalLoop=1;jettySize=auto;html=1;exitX=1;exitY=0.5;exitDx=0;exitDy=0;exitPerimeter=0;fontSize=13;" edge="1" parent="1" source="kAd0blMhwZ4-BtbcnQFY-18">
          <mxGeometry relative="1" as="geometry">
            <mxPoint x="230" y="380" as="targetPoint" />
          </mxGeometry>
        </mxCell>
        <mxCell id="kAd0blMhwZ4-BtbcnQFY-30" style="edgeStyle=orthogonalEdgeStyle;rounded=0;orthogonalLoop=1;jettySize=auto;html=1;exitX=0.5;exitY=1;exitDx=0;exitDy=0;exitPerimeter=0;fontSize=13;" edge="1" parent="1" source="kAd0blMhwZ4-BtbcnQFY-18">
          <mxGeometry relative="1" as="geometry">
            <mxPoint x="120" y="470" as="targetPoint" />
          </mxGeometry>
        </mxCell>
        <mxCell id="kAd0blMhwZ4-BtbcnQFY-18" value="" style="strokeWidth=2;html=1;shape=mxgraph.flowchart.decision;whiteSpace=wrap;fontSize=20;" vertex="1" parent="1">
          <mxGeometry x="50" y="330" width="140" height="100" as="geometry" />
        </mxCell>
        <mxCell id="kAd0blMhwZ4-BtbcnQFY-20" value="&lt;font style=&quot;font-size: 13px;&quot;&gt;MAIOR DE 18 ANOS?&lt;/font&gt;" style="text;html=1;strokeColor=none;fillColor=none;align=center;verticalAlign=middle;whiteSpace=wrap;rounded=0;fontSize=20;" vertex="1" parent="1">
          <mxGeometry x="75" y="225" width="90" height="30" as="geometry" />
        </mxCell>
        <mxCell id="kAd0blMhwZ4-BtbcnQFY-21" value="DATA DO EVENTO&amp;gt; DATA ATUAL" style="text;html=1;strokeColor=none;fillColor=none;align=center;verticalAlign=middle;whiteSpace=wrap;rounded=0;fontSize=13;" vertex="1" parent="1">
          <mxGeometry x="90" y="365" width="60" height="30" as="geometry" />
        </mxCell>
        <mxCell id="kAd0blMhwZ4-BtbcnQFY-23" value="&lt;font style=&quot;font-size: 13px;&quot;&gt;NÃO&lt;/font&gt;" style="text;html=1;strokeColor=none;fillColor=none;align=center;verticalAlign=middle;whiteSpace=wrap;rounded=0;fontSize=13;" vertex="1" parent="1">
          <mxGeometry x="190" y="345" width="60" height="30" as="geometry" />
        </mxCell>
        <mxCell id="kAd0blMhwZ4-BtbcnQFY-24" value="&lt;font style=&quot;font-size: 13px;&quot;&gt;SIM&lt;/font&gt;" style="text;html=1;strokeColor=none;fillColor=none;align=center;verticalAlign=middle;whiteSpace=wrap;rounded=0;fontSize=13;" vertex="1" parent="1">
          <mxGeometry x="120" y="290" width="60" height="30" as="geometry" />
        </mxCell>
        <mxCell id="kAd0blMhwZ4-BtbcnQFY-28" style="edgeStyle=orthogonalEdgeStyle;rounded=0;orthogonalLoop=1;jettySize=auto;html=1;exitX=1;exitY=0.5;exitDx=0;exitDy=0;exitPerimeter=0;fontSize=13;" edge="1" parent="1" source="kAd0blMhwZ4-BtbcnQFY-26">
          <mxGeometry relative="1" as="geometry">
            <mxPoint x="600" y="160" as="targetPoint" />
          </mxGeometry>
        </mxCell>
        <mxCell id="kAd0blMhwZ4-BtbcnQFY-26" value="" style="strokeWidth=2;html=1;shape=mxgraph.flowchart.display;whiteSpace=wrap;fontSize=13;" vertex="1" parent="1">
          <mxGeometry x="250" y="345" width="150" height="70" as="geometry" />
        </mxCell>
        <mxCell id="kAd0blMhwZ4-BtbcnQFY-27" value="&lt;span style=&quot;color: rgb(10, 48, 105); font-family: ui-monospace, SFMono-Regular, &amp;quot;SF Mono&amp;quot;, Menlo, Consolas, &amp;quot;Liberation Mono&amp;quot;, monospace; font-size: 12px; text-align: start; background-color: rgb(255, 255, 255);&quot;&gt;Data inválida, cadastro não permitido&lt;/span&gt;" style="text;html=1;strokeColor=none;fillColor=none;align=center;verticalAlign=middle;whiteSpace=wrap;rounded=0;fontSize=13;" vertex="1" parent="1">
          <mxGeometry x="281" y="365" width="110" height="30" as="geometry" />
        </mxCell>
        <mxCell id="kAd0blMhwZ4-BtbcnQFY-32" style="edgeStyle=orthogonalEdgeStyle;rounded=0;orthogonalLoop=1;jettySize=auto;html=1;exitX=0.5;exitY=1;exitDx=0;exitDy=0;exitPerimeter=0;fontSize=13;" edge="1" parent="1" source="kAd0blMhwZ4-BtbcnQFY-29">
          <mxGeometry relative="1" as="geometry">
            <mxPoint x="120" y="590" as="targetPoint" />
          </mxGeometry>
        </mxCell>
        <mxCell id="kAd0blMhwZ4-BtbcnQFY-29" value="" style="strokeWidth=2;html=1;shape=mxgraph.flowchart.stored_data;whiteSpace=wrap;fontSize=13;" vertex="1" parent="1">
          <mxGeometry x="50" y="480" width="140" height="70" as="geometry" />
        </mxCell>
        <mxCell id="kAd0blMhwZ4-BtbcnQFY-31" value="LISTAR PARTICIPANTES E PALESTRANTES&amp;nbsp;" style="text;html=1;strokeColor=none;fillColor=none;align=center;verticalAlign=middle;whiteSpace=wrap;rounded=0;fontSize=13;" vertex="1" parent="1">
          <mxGeometry x="90" y="500" width="60" height="30" as="geometry" />
        </mxCell>
        <mxCell id="kAd0blMhwZ4-BtbcnQFY-35" style="edgeStyle=orthogonalEdgeStyle;rounded=0;orthogonalLoop=1;jettySize=auto;html=1;exitX=1;exitY=0.5;exitDx=0;exitDy=0;exitPerimeter=0;fontSize=13;" edge="1" parent="1" source="kAd0blMhwZ4-BtbcnQFY-33">
          <mxGeometry relative="1" as="geometry">
            <mxPoint x="230" y="650" as="targetPoint" />
          </mxGeometry>
        </mxCell>
        <mxCell id="kAd0blMhwZ4-BtbcnQFY-42" style="edgeStyle=orthogonalEdgeStyle;rounded=0;orthogonalLoop=1;jettySize=auto;html=1;exitX=0.5;exitY=1;exitDx=0;exitDy=0;exitPerimeter=0;fontSize=13;" edge="1" parent="1" source="kAd0blMhwZ4-BtbcnQFY-33" target="kAd0blMhwZ4-BtbcnQFY-43">
          <mxGeometry relative="1" as="geometry">
            <mxPoint x="120" y="740" as="targetPoint" />
          </mxGeometry>
        </mxCell>
        <mxCell id="kAd0blMhwZ4-BtbcnQFY-33" value="" style="strokeWidth=2;html=1;shape=mxgraph.flowchart.decision;whiteSpace=wrap;fontSize=20;" vertex="1" parent="1">
          <mxGeometry x="50" y="600" width="140" height="100" as="geometry" />
        </mxCell>
        <mxCell id="kAd0blMhwZ4-BtbcnQFY-34" value="ATÉ 100 PARTICIPANTES&amp;nbsp;" style="text;html=1;strokeColor=none;fillColor=none;align=center;verticalAlign=middle;whiteSpace=wrap;rounded=0;fontSize=13;" vertex="1" parent="1">
          <mxGeometry x="90" y="630" width="60" height="30" as="geometry" />
        </mxCell>
        <mxCell id="kAd0blMhwZ4-BtbcnQFY-36" value="&lt;font style=&quot;font-size: 13px;&quot;&gt;SIM&lt;/font&gt;" style="text;html=1;strokeColor=none;fillColor=none;align=center;verticalAlign=middle;whiteSpace=wrap;rounded=0;fontSize=13;" vertex="1" parent="1">
          <mxGeometry x="130" y="440" width="60" height="30" as="geometry" />
        </mxCell>
        <mxCell id="kAd0blMhwZ4-BtbcnQFY-37" value="" style="strokeWidth=2;html=1;shape=mxgraph.flowchart.display;whiteSpace=wrap;fontSize=13;" vertex="1" parent="1">
          <mxGeometry x="250" y="615" width="150" height="70" as="geometry" />
        </mxCell>
        <mxCell id="kAd0blMhwZ4-BtbcnQFY-38" value="&lt;font style=&quot;font-size: 13px;&quot;&gt;NÃO&lt;/font&gt;" style="text;html=1;strokeColor=none;fillColor=none;align=center;verticalAlign=middle;whiteSpace=wrap;rounded=0;fontSize=13;" vertex="1" parent="1">
          <mxGeometry x="180" y="610" width="60" height="30" as="geometry" />
        </mxCell>
        <mxCell id="kAd0blMhwZ4-BtbcnQFY-40" style="edgeStyle=orthogonalEdgeStyle;rounded=0;orthogonalLoop=1;jettySize=auto;html=1;exitX=1;exitY=0.5;exitDx=0;exitDy=0;fontSize=13;" edge="1" parent="1" source="kAd0blMhwZ4-BtbcnQFY-39">
          <mxGeometry relative="1" as="geometry">
            <mxPoint x="630" y="160" as="targetPoint" />
          </mxGeometry>
        </mxCell>
        <mxCell id="kAd0blMhwZ4-BtbcnQFY-39" value="&lt;span style=&quot;color: rgb(10, 48, 105); font-family: ui-monospace, SFMono-Regular, &amp;quot;SF Mono&amp;quot;, Menlo, Consolas, &amp;quot;Liberation Mono&amp;quot;, monospace; font-size: 12px; text-align: start; background-color: rgb(255, 255, 255);&quot;&gt;Alerta, quantidade de participantes excede o limite&lt;/span&gt;" style="text;html=1;strokeColor=none;fillColor=none;align=center;verticalAlign=middle;whiteSpace=wrap;rounded=0;fontSize=13;" vertex="1" parent="1">
          <mxGeometry x="276" y="632" width="120" height="30" as="geometry" />
        </mxCell>
        <mxCell id="kAd0blMhwZ4-BtbcnQFY-43" value="" style="rounded=0;whiteSpace=wrap;html=1;fontSize=13;" vertex="1" parent="1">
          <mxGeometry x="50" y="750" width="140" height="60" as="geometry" />
        </mxCell>
        <mxCell id="kAd0blMhwZ4-BtbcnQFY-44" value="CADASTRO REALIZADO" style="text;html=1;strokeColor=none;fillColor=none;align=center;verticalAlign=middle;whiteSpace=wrap;rounded=0;fontSize=13;" vertex="1" parent="1">
          <mxGeometry x="90" y="765" width="60" height="30" as="geometry" />
        </mxCell>
      </root>
    </mxGraphModel>
  </diagram>
</mxfile>
